<svg version="1.1" viewBox="0.0 0.0 960.0 720.0" fill="none" stroke="none" stroke-linecap="square" stroke-miterlimit="10" xmlns:xlink="http://www.w3.org/1999/xlink" xmlns="http://www.w3.org/2000/svg"><clipPath id="p.0"><path d="m0 0l960.0 0l0 720.0l-960.0 0l0 -720.0z" clip-rule="nonzero"/></clipPath><g clip-path="url(#p.0)"><path fill="#000000" fill-opacity="0.0" d="m0 0l960.0 0l0 720.0l-960.0 0z" fill-rule="evenodd"/><path fill="#ffffff" d="m240.0 146.46194l377.23315 0l22.766846 22.766861l0 113.83156l-400.0 0z" fill-rule="evenodd"/><path stroke="#000000" stroke-width="1.0" stroke-linejoin="round" stroke-linecap="butt" d="m240.0 146.46194l377.23315 0l22.766846 22.766861l0 113.83156l-400.0 0z" fill-rule="evenodd"/><path fill="#000000" d="m240.0 161.23622l371.69495 0l28.305054 28.305023l0 141.52174l-400.0 0z" fill-rule="evenodd"/><path stroke="#000000" stroke-width="1.0" stroke-linejoin="round" stroke-linecap="butt" d="m240.0 161.23622l371.69495 0l28.305054 28.305023l0 141.52174l-400.0 0z" fill-rule="evenodd"/><path fill="#000000" fill-opacity="0.0" d="m271.98425 201.84514l390.17322 0l0 100.91341l-390.17322 0z" fill-rule="evenodd"/><path fill="#ffffff" d="m292.98425 237.56514l0 -24.0l-8.0 0l0 -4.0l24.0 0l0 4.0l-8.0 0l0 24.0l-8.0 0zm20.000061 0l0 -28.0l8.0 0l0 8.0l16.0 0l0 4.0l4.0 0l0 16.0l-8.0 0l0 -16.0l-12.0 0l0 16.0l-8.0 0zm36.00006 0l0 -4.0l-4.0 0l0 -12.0l4.0 0l0 -4.0l20.0 0l0 4.0l4.0 0l0 8.0l-20.0 0l0 4.0l16.0 0l0 4.0l-20.0 0zm4.0 -12.0l12.0 0l0 -4.0l-12.0 0l0 4.0zm56.000122 12.0l0 -28.0l8.0 0l0 4.0l4.0 0l0 4.0l4.0 0l0 -4.0l4.0 0l0 -4.0l8.0 0l0 28.0l-8.0 0l0 -16.0l-4.0 0l0 8.0l-4.0 0l0 -8.0l-4.0 0l0 16.0l-8.0 0zm36.00006 0l0 -4.0l-4.0 0l0 -12.0l4.0 0l0 -4.0l20.0 0l0 4.0l4.0 0l0 12.0l-4.0 0l0 4.0l-20.0 0zm4.0 -4.0l12.0 0l0 -12.0l-12.0 0l0 12.0zm36.00006 4.0l0 -4.0l-4.0 0l0 -4.0l-4.0 0l0 -12.0l8.0 0l0 12.0l8.0 0l0 -12.0l8.0 0l0 12.0l-4.0 0l0 4.0l-4.0 0l0 4.0l-8.0 0zm32.00006 -24.0l0 -4.0l8.0 0l0 4.0l-8.0 0zm-8.0 24.0l0 -4.0l8.0 0l0 -12.0l-4.0 0l0 -4.0l12.0 0l0 16.0l8.0 0l0 4.0l-24.0 0zm32.00006 0l0 -4.0l-4.0 0l0 -12.0l4.0 0l0 -4.0l20.0 0l0 4.0l4.0 0l0 8.0l-20.0 0l0 4.0l16.0 0l0 4.0l-20.0 0zm4.0 -12.0l12.0 0l0 -4.0l-12.0 0l0 4.0z" fill-rule="nonzero"/><path fill="#ffffff" d="m280.98425 275.56516l0 -28.000015l20.0 0l0 4.0l4.0 0l0 4.0l4.0 0l0 12.000015l-4.0 0l0 4.0l-4.0 0l0 4.0l-20.0 0zm8.0 -4.0l8.0 0l0 -4.0l4.0 0l0 -12.000015l-4.0 0l0 -4.0l-8.0 0l0 20.000015zm28.000061 4.0l0 -4.0l-4.0 0l0 -4.0l4.0 0l0 -4.0l16.0 0l0 -4.0l-16.0 0l0 -4.0000153l20.0 0l0 4.0000153l4.0 0l0 16.0l-24.0 0zm4.0 -4.0l12.0 0l0 -4.0l-12.0 0l0 4.0zm36.00006 4.0l0 -16.0l-8.0 0l0 -4.0000153l8.0 0l0 -8.0l8.0 0l0 8.0l8.0 0l0 4.0000153l-8.0 0l0 16.0l-8.0 0zm24.000061 0l0 -4.0l-4.0 0l0 -4.0l4.0 0l0 -4.0l16.0 0l0 -4.0l-16.0 0l0 -4.0000153l20.0 0l0 4.0000153l4.0 0l0 16.0l-24.0 0zm4.0 -4.0l12.0 0l0 -4.0l-12.0 0l0 4.0zm28.000061 4.0l0 -4.0l-4.0 0l0 -24.000015l8.0 0l0 8.0l16.0 0l0 4.0000153l4.0 0l0 12.0l-4.0 0l0 4.0l-20.0 0zm4.0 -4.0l12.0 0l0 -12.0l-12.0 0l0 12.0zm28.000061 4.0l0 -4.0l-4.0 0l0 -4.0l4.0 0l0 -4.0l16.0 0l0 -4.0l-16.0 0l0 -4.0000153l20.0 0l0 4.0000153l4.0 0l0 16.0l-24.0 0zm4.0 -4.0l12.0 0l0 -4.0l-12.0 0l0 4.0zm24.000061 4.0l0 -4.0l20.0 0l0 -4.0l-16.0 0l0 -4.0l-4.0 0l0 -4.0l4.0 0l0 -4.0000153l20.0 0l0 4.0000153l-16.0 0l0 4.0l16.0 0l0 4.0l4.0 0l0 4.0l-4.0 0l0 4.0l-24.0 0zm36.00006 0l0 -4.0l-4.0 0l0 -12.0l4.0 0l0 -4.0000153l20.0 0l0 4.0000153l4.0 0l0 8.0l-20.0 0l0 4.0l16.0 0l0 4.0l-20.0 0zm4.0 -12.0l12.0 0l0 -4.0l-12.0 0l0 4.0z" fill-rule="nonzero"/></g></svg>